<?xml version="1.0" standalone="no"?><!DOCTYPE svg PUBLIC "-//W3C//DTD SVG 1.1//EN" "http://www.w3.org/Graphics/SVG/1.1/DTD/svg11.dtd"><svg t="1717503363675" class="icon" viewBox="0 0 1024 1024" version="1.1" xmlns="http://www.w3.org/2000/svg" p-id="9235" xmlns:xlink="http://www.w3.org/1999/xlink" width="200" height="200"><path d="M276.8 494.08a260.608 260.608 0 1 0 521.28 0 260.608 260.608 0 0 0-521.28 0zM537.472 159.68a21.632 21.632 0 0 1-21.504-21.504v-52.16c0-11.84 9.728-21.568 21.504-21.568 11.776 0 21.44 9.792 21.44 21.568v52.16a21.632 21.632 0 0 1-21.44 21.568z m-196.096 63.488a21.76 21.76 0 0 1-29.696-4.544l-30.72-42.496a21.76 21.76 0 0 1 4.608-29.696 21.76 21.76 0 0 1 29.696 4.608l30.72 42.432a21.632 21.632 0 0 1-4.608 29.696zM219.52 390.656a21.312 21.312 0 0 1-26.688 13.76l-49.664-16.32a21.312 21.312 0 0 1-13.824-26.688 21.312 21.312 0 0 1 26.688-13.824l49.6 16.384a21.12 21.12 0 0 1 13.824 26.688z m0 206.336a21.12 21.12 0 0 1-13.888 26.56L156.032 640a21.12 21.12 0 0 1-26.56-13.824 21.12 21.12 0 0 1 13.824-26.56l49.664-16.448a21.952 21.952 0 0 1 26.624 13.824z m121.28 167.424c9.216 6.592 11.776 20.48 4.608 29.632l-30.72 42.56a21.248 21.248 0 0 1-34.24-25.088l30.72-42.56a21.76 21.76 0 0 1 29.632-4.608z m196.672 64c11.776 0 21.44 9.664 21.44 21.44v52.224a21.632 21.632 0 0 1-21.44 21.504 21.632 21.632 0 0 1-21.504-21.44v-52.224a21.952 21.952 0 0 1 21.504-21.504z m196.608-64a21.76 21.76 0 0 1 29.632 4.544l30.72 42.56a21.76 21.76 0 0 1-4.608 29.632 21.76 21.76 0 0 1-29.632-4.608l-30.72-42.432a21.76 21.76 0 0 1 4.608-29.696z m121.792-166.976a21.312 21.312 0 0 1 26.688-13.824l49.664 16.448a21.312 21.312 0 0 1 13.76 26.56 21.312 21.312 0 0 1-26.56 13.824l-49.728-16.32a20.48 20.48 0 0 1-13.824-26.688z m0-206.848a21.12 21.12 0 0 1 13.824-26.56l49.728-16.384a21.12 21.12 0 0 1 26.56 13.76 21.12 21.12 0 0 1-13.824 26.688l-49.6 16.32a21.12 21.12 0 0 1-26.624-13.76zM734.08 223.296a21.248 21.248 0 0 1-4.608-29.76l30.72-42.432a21.248 21.248 0 0 1 34.304 25.088l-30.72 42.496a20.736 20.736 0 0 1-29.696 4.544z" fill="#ffffff" p-id="9236"></path></svg>