<?xml version="1.0" standalone="no"?><!DOCTYPE svg PUBLIC "-//W3C//DTD SVG 1.1//EN" "http://www.w3.org/Graphics/SVG/1.1/DTD/svg11.dtd"><svg t="1717484452174" class="icon" viewBox="0 0 1024 1024" version="1.1" xmlns="http://www.w3.org/2000/svg" p-id="5017" xmlns:xlink="http://www.w3.org/1999/xlink" width="200" height="200"><path d="M140.2 462.9l5.7-2.9c12.7-91.8 72.6-152.4 166.1-163.2 34.2-3.9 65.3 1.3 101.6 15.4 43.3-65.5 113.7-100.1 195.3-110.4-58.6-87.8-158.5-145.6-272-145.6C156.3 56.2 10 202.5 10 383c0 48.3 10.5 94.1 29.2 135.3 32.7-25.4 58.7-47.7 101-55.4z" fill="#ffffff" p-id="5018"></path><path d="M0 733.2c0 129.7 105 234.7 234.7 234.7h554.7c129.7 0 234.7-105 234.7-234.7 0-99.6-62.1-184.5-149.5-218.7l0.2-5.3c0-135.5-109.9-245.3-245.3-245.3-85.7 0-161.1 44-205 110.5-23.7-16-52.3-25.2-83-25.2-82.7 0-149.5 66.8-149.5 149.3v3.9C82.8 522.4 0 618.2 0 733.2z" fill="#ffffff" p-id="5019"></path></svg>