<?xml version="1.0" standalone="no"?><!DOCTYPE svg PUBLIC "-//W3C//DTD SVG 1.1//EN" "http://www.w3.org/Graphics/SVG/1.1/DTD/svg11.dtd"><svg t="1717781400917" class="icon" viewBox="0 0 1024 1024" version="1.1" xmlns="http://www.w3.org/2000/svg" p-id="5314" xmlns:xlink="http://www.w3.org/1999/xlink" width="200" height="200"><path d="M513.023 925.877C290.44 930.789 85.785 742.557 98.967 487.146c10.45-202.458 179.529-392.458 420.154-389.067 220.749 3.102 405.738 178.519 406.521 415.054 0.74 223.521-180.004 415.058-412.619 412.744zM770.943 255.6c-1.006-0.819-2.003-1.642-3.009-2.461-16.048 7.695-32.177 15.234-48.136 23.134-32.836 16.266-66.197 31.603-98.2 49.382-40.055 22.248-78.797 46.833-118.401 69.922-40.678 23.712-73.42 55.462-97.942 95.525-15.292 24.981-29.912 50.38-44.505 75.771-16.778 29.195-33.632 58.35-49.649 87.955-13.939 25.777-26.908 52.088-40.015 78.293-5.786 11.588-10.868 23.516-17.927 38.896 21.073-9.719 38.212-16.857 54.657-25.367 37.598-19.432 75.151-39.004 112.184-59.521 38.702-21.416 77.208-43.285 115-66.285 48.716-29.645 78.155-77.082 107.484-123.564 21.781-34.482 39.645-71.466 58.729-107.622 23.516-44.532 46.508-89.353 69.73-134.058z m-280.252-39.885c0 12.159-0.396 24.335 0.125 36.467 0.396 9.292-0.009 19.4 3.605 27.509 2.861 6.435 11.291 14.384 17.192 14.339 5.87-0.044 16.587-9.075 16.733-14.411 1.233-42.778 0.463-85.619 0.236-128.437 0-0.943-0.89-1.869-1.376-2.799-5.215-10.085-18.718-13.601-25.706-5.002-5.47 6.733-9.457 16.178-10.347 24.807-1.623 15.688-0.462 31.665-0.462 47.527z m321.019 276.95c-18.567 0-37.135-0.165-55.693 0.049-13.405 0.147-24.371 9.328-23 19.956 1.655 12.941 10.103 18.434 23 18.363 35.542-0.188 71.092 0.07 106.625-0.135 14.473-0.07 28.145-10.582 25.741-21.629-2.635-12.15-12.995-17.027-25.75-16.716-16.966 0.419-33.948 0.103-50.923 0.112zM528.979 812.779c0-20.098 0.69-40.227-0.436-60.264-0.316-5.572-4.793-13.377-9.488-15.531-4.816-2.217-14.531-0.953-17.985 2.697-5.314 5.615-9.689 14.48-9.934 22.1-1.05 32.752-0.596 65.561-0.298 98.352 0.04 5.572 0.183 12.943 3.503 16.254 5.394 5.377 13.2 10.627 20.437 11.34 10.881 1.068 14.625-7.174 14.361-17.838-0.494-19.012-0.138-38.061-0.16-57.11zM213.604 530.975c17.468 0 34.932-0.188 52.391 0.049 13.36 0.183 22.711-4.811 23.886-18.995 0.953-11.527-8.674-19.235-23.432-19.315-34.932-0.169-69.864 0.156-104.787-0.16-13.249-0.116-20.308 6.707-21.1 18.825-0.885 13.614 7.308 19.721 20.65 19.623 17.464-0.135 34.923-0.027 52.392-0.027z m0 0" p-id="5315" fill="#ffffff"></path><path d="M513.598 451.337c30.166 0.191 60.651 31.474 58.507 62.539-2.475 35.827-24.759 57.612-59.085 58.329-36.414 0.756-61.19-26.344-60.571-62.851 0.578-34.629 32.265-57.838 61.149-58.017z m0 0" p-id="5316" fill="#ffffff"></path><path d="M512 11.998c-276.135 0-500 223.86-500 500.005 0 276.14 223.865 500 500 500 276.149 0 500-223.859 500-500 0-276.145-223.851-500.005-500-500.005z m0 963.742c-256.117 0-463.742-207.629-463.742-463.738C48.258 255.876 255.883 48.256 512 48.256c256.122 0 463.746 207.62 463.746 463.747 0 256.108-207.624 463.737-463.746 463.737z m0 0" p-id="5317" fill="#ffffff"></path></svg>