<?xml version="1.0" standalone="no"?><!DOCTYPE svg PUBLIC "-//W3C//DTD SVG 1.1//EN" "http://www.w3.org/Graphics/SVG/1.1/DTD/svg11.dtd"><svg t="1717590065879" class="icon" viewBox="0 0 1024 1024" version="1.1" xmlns="http://www.w3.org/2000/svg" p-id="1381" xmlns:xlink="http://www.w3.org/1999/xlink" width="200" height="200"><path d="M309.76 752.64c-22.016 23.04-50.688 57.344-57.856 84.48-7.68 31.744 8.704 64 36.352 72.192s56.832-10.752 64.512-42.496c6.656-27.136-2.56-72.704-10.752-104.448-3.584-15.872-21.504-20.992-32.256-9.728zM665.6 753.664c-22.016 23.04-50.688 57.344-57.856 84.48-7.68 31.744 8.704 64 36.352 72.192s56.832-10.752 64.512-42.496c6.656-27.136-2.56-72.704-10.752-104.448-3.584-15.36-21.504-20.48-32.256-9.728zM481.28 860.16c-18.432 19.456-42.496 47.616-48.128 70.144-6.656 26.112 7.168 53.248 30.208 59.904s47.616-9.216 53.76-35.328c5.632-22.528-2.048-60.416-9.216-87.04-2.56-12.8-17.408-16.896-26.624-7.68zM729.6 391.168c-26.112 0-50.176 9.728-70.656 22.528 0-3.072 0.512-5.632 0.512-8.192 0-114.176-86.528-210.944-197.12-210.944-91.648 0-171.008 67.072-194.048 155.648-71.68 17.92-124.928 85.504-124.928 165.888 0 86.016 56.32 158.72 135.68 170.496H384.512c10.752-32.256 35.84-69.12 76.288-111.104 15.872-16.384 36.864-25.6 59.392-25.6 37.376 0 70.656 26.112 80.384 62.976 7.168 27.648 12.288 52.224 14.848 73.728h128.512c70.656-7.168 126.976-70.656 126.976-146.432-0.512-81.408-63.488-148.992-141.312-148.992z" p-id="1382" fill="#ffffff"></path><path d="M505.344 617.472c-24.576 25.6-56.32 63.488-64 93.696-8.704 34.816 9.728 70.656 40.448 79.872s62.976-12.288 71.68-47.104c7.68-30.208-2.56-80.384-12.288-115.712-4.608-17.408-24.064-23.04-35.84-10.752z" p-id="1383" fill="#ffffff"></path></svg>