<?xml version="1.0" standalone="no"?><!DOCTYPE svg PUBLIC "-//W3C//DTD SVG 1.1//EN" "http://www.w3.org/Graphics/SVG/1.1/DTD/svg11.dtd"><svg t="1717553556524" class="icon" viewBox="0 0 1081 1024" version="1.1" xmlns="http://www.w3.org/2000/svg" p-id="1472" xmlns:xlink="http://www.w3.org/1999/xlink" width="211.1328125" height="200"><path d="M911.584243 457.140494a33.631534 33.631534 0 0 0-29.091277-17.824713 34.976795 34.976795 0 0 0-29.595749 16.815767l-4.876573 8.576041c-64.23623 111.15222-151.341903 263.334911-151.341903 354.980842a186.318699 186.318699 0 1 0 372.469239 0c0-79.538578-67.263068-201.789204-126.622725-307.896694-11.602879-19.338132-21.860497-37.835476-30.941012-54.651243zM881.988493 940.089323a119.728261 119.728261 0 0 1-118.887472-120.400892c0-63.059126 65.749649-185.982383 117.710369-278.132787l1.513419 2.858681c50.447301 89.964354 117.710369 213.055768 117.710369 275.274106a119.896419 119.896419 0 0 1-118.046685 120.400892zM411.147017 154.961161c-18.833659-33.631534-36.82653-66.085964-52.633351-95.849872l-9.921302-18.329186a33.631534 33.631534 0 0 0-29.091277-16.815767 33.631534 33.631534 0 0 0-29.59575 16.815767L269.053786 75.086267C162.273665 261.068651 0.001514 542.228275 0.001514 702.482535a320.508519 320.508519 0 0 0 319.499573 321.517465 321.012992 321.012992 0 0 0 319.499573-321.685623c0-139.570866-124.941149-364.397671-225.16312-545.167167zM319.501087 956.736932A253.077294 253.077294 0 0 1 67.264582 702.482535c0-137.552974 146.801646-396.347629 250.891243-576.780809 10.762091 19.842605 22.36497 40.525999 33.631535 61.882023l1.177103 2.186049c91.477773 164.794517 216.755237 390.46211 216.755237 512.376421A253.749924 253.749924 0 0 1 319.501087 956.736932zM1070.661399 407.870297c-16.815767-15.470506-23.205758-40.694156-30.100223-69.785434-9.921303-42.207575-22.196812-94.672768-76.848055-127.967987-67.263068-40.862314-131.162983-16.815767-187.66396 3.531312-39.180737 14.293402-76.343582 27.914173-110.479589 19.338132-133.180875-33.631534-124.604834-190.018167-124.268518-196.912632A33.631534 33.631534 0 0 0 510.191885 0.087946a33.631534 33.631534 0 0 0-35.985742 31.277327c-5.381045 75.502794 24.214705 228.694431 174.71582 266.698065 54.483085 13.788929 105.434859-4.876572 150.332957-21.356024 55.828346-20.515236 91.982246-31.949957 129.481406-9.080514C958.500233 285.955986 965.22654 311.684109 975.316 353.219054c8.239726 35.313111 17.656555 75.166479 50.447301 104.762228a33.631534 33.631534 0 0 0 22.364971 8.407884 33.631534 33.631534 0 0 0 25.055492-11.266564 33.631534 33.631534 0 0 0-2.522365-47.252305z" fill="#ffffff" p-id="1473"></path></svg>