<?xml version="1.0" standalone="no"?><!DOCTYPE svg PUBLIC "-//W3C//DTD SVG 1.1//EN" "http://www.w3.org/Graphics/SVG/1.1/DTD/svg11.dtd"><svg t="1717590038190" class="icon" viewBox="0 0 1024 1024" version="1.1" xmlns="http://www.w3.org/2000/svg" p-id="1171" xmlns:xlink="http://www.w3.org/1999/xlink" width="200" height="200"><path d="M727.04 391.168c-26.112 0-50.176 9.728-70.656 22.528 0-3.072 0.512-5.632 0.512-8.192 0-114.176-86.528-210.944-197.12-210.944-91.648 0-171.008 67.072-194.048 155.648-71.68 17.92-124.416 85.504-124.416 165.888 0 86.016 56.32 158.72 135.68 170.496h464.384c70.656-7.168 126.976-70.656 126.976-146.432-0.512-81.408-63.488-148.992-141.312-148.992zM380.416 753.664c-22.016 23.04-50.688 57.344-57.856 84.48-7.68 31.744 8.704 64 36.352 72.192s56.832-10.752 64.512-42.496c6.656-27.136-2.56-72.704-10.752-104.448-4.096-15.36-22.016-20.48-32.256-9.728zM646.656 753.664c-22.016 23.04-50.688 57.344-57.856 84.48-7.68 31.744 8.704 64 36.352 72.192s56.832-10.752 64.512-42.496c6.656-27.136-2.56-72.704-10.752-104.448-4.096-15.36-21.504-20.48-32.256-9.728zM511.488 875.008c-16.384 17.408-38.4 43.008-43.52 63.488-5.632 23.552 6.656 48.128 27.136 54.272 20.992 6.144 42.496-8.192 48.64-31.744 5.12-20.48-2.048-54.272-8.192-78.336-2.56-11.776-15.872-15.872-24.064-7.68z" p-id="1172" fill="#ffffff"></path></svg>