<?xml version="1.0" standalone="no"?><!DOCTYPE svg PUBLIC "-//W3C//DTD SVG 1.1//EN" "http://www.w3.org/Graphics/SVG/1.1/DTD/svg11.dtd"><svg t="1724595154792" class="icon" viewBox="0 0 1024 1024" version="1.1" xmlns="http://www.w3.org/2000/svg" p-id="893" xmlns:xlink="http://www.w3.org/1999/xlink" width="200" height="200"><path d="M386.5 92c-14.5-11.9-28.8-19.7-42.9-23.6-14.1-2.9-28.8-4.4-43.9-4.4H160v400h58.4V307.9h88.9c39.7-0.7 69.9-13.9 90.5-39.5 20.1-24.3 30.2-51.3 30.2-80.9 0-21.9-4-41-11.9-57.1-7.6-16.7-17.4-29.5-29.6-38.4zM354 229.9c-11 13.6-27.3 20.6-49 20.9h-86.6V121h84.5c15.9-0.4 29.8 3.4 41.9 11.3 7.9 4.8 14.1 11.3 18.5 19.6 4.2 9.2 6.4 20.5 6.4 33.9-0.1 16.2-5.3 30.9-15.7 44.1zM807 64L699 324.7 588.8 64H534v400h58.2V214.5h1l80.4 192.1h48.5l80.4-192.1h1.3V464H862V64zM380 673.6c-0.4-32.7-11-59.6-32-80.9-20.7-21.4-47.6-32.3-80.7-32.7-29.7 0.4-54.6 11.1-74.9 32.1-20.1 21.6-30.9 48.8-32.3 81.8h55.1c1.9-18.2 8.1-32.3 18.6-42.3 10.1-10 22.7-15 37.9-15 17.1 0.4 30.4 6.1 39.8 17.2 9 11.1 13.5 24.1 13.5 39 0 5.6-0.7 11.6-2.1 18-2.1 6.7-6.1 14-11.9 21.8L160 906.7V960h220v-56.6H232.6l124.1-160.1c15.5-20.3 23.3-43.6 23.3-69.7zM484 904h56v56h-56zM855.1 751.8c-4.7-14.3-12.5-26.9-23.2-37.8-7.3-8.2-16.7-15.1-28.4-20.7-12.4-5.1-26-7.8-40.9-8.2-23.2 0-43.8 7.3-61.8 21.8v-90.4h153.8V560H648.9v214.5h51.9c6.6-12.2 14-20.7 22.3-25.6 8.3-4.7 17.5-7.1 27.6-7.1 11.3 0 20.8 1.6 28.4 4.9 7.6 4 13.4 9.4 17.3 16.1 7.3 14.2 10.7 32.6 10.4 55.3 0 9.3-0.2 18.8-0.5 28.6-0.7 10-2.7 19.3-5.8 27.8-3 8.5-8.3 15.5-15.9 20.7-8 5.5-18.6 8.2-31.8 8.2-30.9-0.4-49.4-15.8-55.4-46.4H642c5.3 36.4 19 62.7 41 79 21.7 15.9 45.6 23.9 71.7 23.9 19.4-0.4 36.2-5 50.3-13.8 14.5-8.5 25.5-17.9 33.1-28.1 8.6-10.5 14.8-22.6 18.5-36.2 3.5-13.8 5.3-33.6 5.3-59.3 0-16.7-0.5-30.7-1.6-42.2-0.9-11.1-2.7-20.7-5.2-28.5z" p-id="894" fill="#ffffff"></path></svg>