<?xml version="1.0" standalone="no"?><!DOCTYPE svg PUBLIC "-//W3C//DTD SVG 1.1//EN" "http://www.w3.org/Graphics/SVG/1.1/DTD/svg11.dtd"><svg t="1717579075808" class="icon" viewBox="0 0 1024 1024" version="1.1" xmlns="http://www.w3.org/2000/svg" p-id="4346" xmlns:xlink="http://www.w3.org/1999/xlink" width="200" height="200"><path d="M34.382267 634.56594a34.381275 34.381275 0 1 0 34.381275 34.381275 34.381275 34.381275 0 0 0-34.381275-34.381275zM34.382267 454.725424a34.381275 34.381275 0 1 0 34.381275 34.381275 34.381275 34.381275 0 0 0-34.381275-34.381275zM171.742073 343.647458H376.872662A171.741082 171.741082 0 1 0 198.354503 170.25343v0.826473a34.381275 34.381275 0 0 0 68.597256 0 103.143826 103.143826 0 1 1 102.978531 103.143826h-198.353511a34.381275 34.381275 0 0 0 0 68.76255zM34.382267 274.884907a34.381275 34.381275 0 1 0 34.381275 34.381275 34.381275 34.381275 0 0 0-34.381275-34.381275zM649.443445 634.896529h-477.701372a34.381275 34.381275 0 0 0 0 68.762551h467.453108a125.954479 125.954479 0 1 1-125.95448 125.954479 34.381275 34.381275 0 0 0-68.597256 0v0.991768A194.71703 194.71703 0 1 0 649.60874 634.731235z" fill="#ffffff" p-id="4347"></path><path d="M794.902687 66.117837a229.098305 229.098305 0 0 0-226.949476 198.353511 31.240678 31.240678 0 0 0-0.991767 7.768846v0.991767a34.381275 34.381275 0 0 0 68.597256 0 160.335755 160.335755 0 1 1 158.848103 181.824052H171.742073a34.381275 34.381275 0 0 0 0 68.76255h624.317676A229.098305 229.098305 0 0 0 794.902687 66.117837z" fill="#ffffff" p-id="4348"></path></svg>